<mxfile host="app.diagrams.net" modified="2024-11-26T11:47:53.518Z" agent="Mozilla/5.0 (Macintosh; Intel Mac OS X 10_15_7) AppleWebKit/537.36 (KHTML, like Gecko) Chrome/131.0.0.0 Safari/537.36" version="24.6.5" etag="1pz_wAb6ivTd1C34cVrk" type="github">
  <diagram name="第 1 页" id="VKra0K_8eWdqem-exyk7">
    <mxGraphModel>
      <root>
        <mxCell id="0" />
        <mxCell id="1" parent="0" />
      </root>
    </mxGraphModel>
  </diagram>
</mxfile>
